<?xml version="1.0" encoding="UTF-8" standalone="no"?>
<!-- Created with Inkscape (http://www.inkscape.org/) -->

<svg
   width="79.702995mm"
   height="79.703003mm"
   viewBox="0 0 79.702995 79.703003"
   version="1.1"
   id="svg1"
   xml:space="preserve"
   xmlns="http://www.w3.org/2000/svg"
   xmlns:svg="http://www.w3.org/2000/svg"><defs
     id="defs1" /><g
     id="layer1"
     transform="translate(-33.841854,-28.558415)"
     style="display:inline"><g
       id="g40"><rect
         style="display:inline;fill:none;fill-opacity:1;stroke:none;stroke-width:3.69384;stroke-dasharray:none;stroke-opacity:1"
         id="rect41"
         width="79.702995"
         height="79.703003"
         x="33.841854"
         y="28.558416"
         ry="1.6440977" /><path
         id="rect9"
         style="fill:#ffffff;fill-opacity:1;stroke:#000000;stroke-width:3.661;stroke-dasharray:none;stroke-opacity:1"
         d="m 43.608801,30.47104 c -4.155,0 -7.499801,3.345317 -7.499801,7.500317 v 35.159611 c 0,4.155 3.344801,7.500318 7.499801,7.500318 h 41.103951 l 11.11095,20.494354 0.188619,-20.494354 h 7.765419 c 4.155,0 7.4998,-3.345318 7.4998,-7.500318 V 37.971357 c 0,-4.155 -3.3448,-7.500317 -7.4998,-7.500317 z" /><path
         class="st1"
         d="M 69.153012,43.240585 63.991822,36.08646 H 52.749627 v 24.528426 l 14.308248,14.308249 h 14.308247 4.08807 l 8.29147,-7.118607 0.0565,-24.632994 z m 0.970917,10.220177 h -7.154124 v 2.044036 h 7.154124 V 63.68094 H 58.881734 L 54.793663,59.592869 V 38.130496 h 8.176142 v 7.154124 h 7.154124 z M 76.256032,63.68094 72.167965,59.722284 V 45.28462 h 8.176137 v 10.220178 h 2.04404 V 45.28462 h 8.17614 v 14.437664 l -4.55972,3.958656 z"
         id="path1-1"
         style="fill:#9146ff;stroke-width:0.102202" /></g></g></svg>
